<?xml version="1.0" encoding="UTF-8"?>
<svg xmlns="http://www.w3.org/2000/svg" viewBox="0 0 1000 1000">
  <defs>
    <style>
      .cls-1 {
        fill: #fff;
      }

      .cls-2 {
        fill: #b69d8d;
      }

      .cls-3 {
        fill: #543946;
      }

      .cls-4 {
        fill: #282037;
      }

      .cls-5 {
        fill: #ad917f;
      }

      .cls-6 {
        fill: #fbfaeb;
      }

      .cls-7 {
        fill: #fbfbed;
      }
    </style>
  </defs>
  <g id="Fondo">
    <rect class="cls-4" width="1000" height="1000"/>
  </g>
  <g id="Logo">
    <g>
      <path class="cls-3" d="m183.2,530.31c3.23.43,6.45.96,9.69,1.28,13.92,1.37,24.56-3.4,30.47-16.77,20.13,22.91,48.18,13.86,61.31-11.57.6,3.51.92,3.67-.82,6.99-4.44,8.5-1.69,12.82,9.57,14.86,11.98,2.17,21.64-3.43,28.87-12.9,2.8-3.67,5.91-7.3,6.39-12.34.74.4,1.29.52,1.37.78,1.22,3.95-1.71,9.32,4.46,11.56,7.45,2.7,14.32,1.87,21.08-2.13,2.69-1.59,3.89-5.07,7.38-5.52-.19,2.66-1.42,4.96-2.33,7.4-1.45,3.91-5.45,5.85-6.67,9.76-1,2.25-15.12,3.25-20.47.61-4.25-2.1-6.56-1.57-8.93,2.43-8.8,14.82-27.07,13.31-38.47,8.85-.37-.14-.69-.44-.99-.71-2.37-2.08-3.65-6.11-7.44-5.63-3.36.43-5.13,3.91-7.73,5.9-11.81,9.02-28.05,7.87-41.88-3.51-3.26-2.68-4.59-2.37-7.18.62-4.32,5-9.57,8.59-16.33,10.35-5.78,1.51-10.29.18-14.82-2.89-2.17-2.47-4.34-4.94-6.51-7.42Z"/>
      <path class="cls-6" d="m353.36,522.31c1.22-3.91,5.82-6.44,7.27-10.34.91-2.45,2.14-4.74,2.33-7.4,3.2-12.55-6.6-25.23-20.44-26.02-2.61-.15-4.07-.22-3.08-3.11,1.77-5.21.63-10.56.93-15.83,23.21,1.21,39.34,23.9,29.64,46.94-2.97,7.05-8.17,14.03-16.65,15.78Z"/>
      <path class="cls-5" d="m183.38,478.65c1.96-.98,3.91-1.96,5.87-2.94,1.14,1.7.82,4.44,3.72,5.32.1-1.3.24-2.31.26-3.31.3-13.21,7.08-20.8,19.85-23.36,9.5-1.9,17.86,1.55,26.37,4.38,22.16,7.36,42.6,3.16,61.95-8.79,5.69-3.51,11.73-5.72,18.33-6.81,5.24-.87,9.23,3.36,14.26,2.94,2.66,4.25,5.59,8.38,6.38,13.51-.3,5.28.84,10.62-.93,15.83-.98,2.9.47,2.96,3.08,3.11,13.84.79,23.64,13.47,20.44,26.02-3.48.44-4.69,3.92-7.38,5.51-6.76,4-13.62,4.83-21.08,2.13-6.18-2.24-3.24-7.62-4.46-11.56-.08-.26-.63-.37-1.37-.78-.48,5.04-3.59,8.68-6.39,12.34-7.23,9.47-16.89,15.07-28.87,12.9-11.25-2.04-14-6.36-9.57-14.86,1.73-3.32,1.41-3.49.82-6.99-13.13,25.43-41.18,34.48-61.31,11.57-5.91,13.38-16.56,18.14-30.47,16.77-3.24-.32-6.46-.85-9.69-1.28l.14.07c-.56-.44-1.12-.88-1.68-1.33-12.02-10.48-8.89-24.7.51-33.7,2.09-2,4.18-1.97,6.56-.23,2.62,1.91,5.14,4.24,10.37,4.81-7.69-6.68-12.44-13.47-15.73-21.28Zm109.96-6.44c-2.36.25-4.85,1.45-4.92,5.38-.09,5,5.61,11.31,10.21,10.94,3.32-.27,5.9-1.79,5.83-5.71-.09-4.47-6.03-10.69-11.12-10.62Zm26.72-1.24c4.39.04,6.58-1.75,6.62-5.39.06-4.97-5.66-10.24-11.05-10.25-3.9,0-4.62,2.46-4.64,5.66-.04,5.9,3.59,9.94,9.08,9.98Zm-114.66,15.64c.45,2.82,1.24,5.82,5.35,5.75,4.32-.07,9.86-6.57,9.58-11.31-.22-3.81-2.75-5.31-6.24-5.26-3.97.06-8.8,5.97-8.69,10.82Zm46.96-8.61c-.44-2.83-1.94-4.87-5.55-4.76-4.76.14-10.28,5.9-9.87,10.76.23,2.71,1.25,5.3,4.72,5.41,4.24.13,10.67-6.53,10.7-11.41Z"/>
      <path class="cls-6" d="m335.89,449.1c-5.03.42-10.93-6.82-16.17-5.96-6.59,1.09-12.64,3.3-18.33,6.81-19.35,11.94-39.79,16.14-61.95,8.79-8.51-2.82-16.87-6.28-26.37-4.38-12.78,2.56-19.56,10.14-19.85,23.36-.02,1.01-.15,2.01-.26,3.31-2.9-.88-2.58-3.62-3.72-5.32-2.9-14.23,2.91-26.75,16.04-33.37,5.34-2.69,10.38-6.79,17.28-4.95,2.23.59,3.49.97,4.29,3.34,6.63,19.56,33.63,23.12,46.49,15.57,8.56-5.02,15.19-11.75,15.01-22.74-.04-2.53.43-4.3,3.53-4.65,16.59-1.85,42.81,11.94,44,20.18Z"/>
      <path class="cls-5" d="m203.22,553.72c2.14.24,4.16-.14,6.06-1.14.91,2.05,1.96,4.06,2.69,6.17,6.1,17.66,12.06,35.37,18.26,52.98,1.06,3,1.39,6.92,6.32,8.2-6.83-21.89-13.46-43.17-20.09-64.45,4.65-3.27,7.76-1.89,10.23,2.97,5.13,10.12,8.09,21.01,11.59,31.72,3.13,9.56,6.24,19.13,9.51,28.64,1.23,3.59.59,6-3.55,5.38-7.74-1.14-15.77-1.42-22.56-6.14-.16-1.01-.22-2.04-.5-3.01-5.97-20.44-11.97-40.88-17.96-61.32Z"/>
      <path class="cls-5" d="m257.3,622.98c-2.71.14-4.16-.84-5.01-3.34-6.29-18.44-12.68-36.86-15.65-56.2-.44-2.84-1.53-7.56,1.22-8.47,3.51-1.16,5.87,2.79,7.6,5.9,5.83,10.44,7.31,22.13,9.25,33.61,1.41,8.32,5.59,28.35,2.59,28.51Z"/>
      <path class="cls-5" d="m254.87,563.18c0-3.3-.92-7.38,2.17-8.29,3.2-.94,5.27,2.69,6.71,5.35,4.45,8.23,5.9,17.38,7.21,26.47,1.41,9.74,2.03,16.32,3.05,26.12.23,2.19.51,8.57-2.02,9.02-2.55.45-5.19-3.45-5.89-6.35-4.37-18.23-9.22-34.09-11.23-52.32Z"/>
      <path class="cls-6" d="m183.2,530.31c2.17,2.47,10.21,7.83,12.38,10.3-12.24,0-36.84-15.1-27.9-44.59,2.78-7.25,8.97-13.78,15.71-17.37,3.28,7.81,8.03,14.61,15.73,21.28-5.23-.57-7.75-2.9-10.37-4.81-2.38-1.74-4.47-1.76-6.56.23-9.41,9-12.54,23.22-.51,33.7.56.44,1.12.88,1.68,1.33l-.14-.07Z"/>
      <path class="cls-5" d="m285.56,619c-3.89.46-4.82-15.39-6.52-23.24-2.6-11.99-3.79-23.05-4.5-35.42-.07-1.79-.99-5.62,2.52-6.3,3.06-.59,4.26,1.61,5.3,3.35,2.58,4.31,3.86,11.1,4.44,16.71,1.51,14.61,2.14,44.49-1.23,44.89Z"/>
      <path class="cls-5" d="m304.48,590.08c-.31,6.87-.62,26.47-3.28,26.43-2.16-.04-7.29-30.11-7.87-43.81-.24-5.59-.99-11.17.03-16.85.6-3.32,1.73-3,3.89-1.81,6.89,3.81,6.36,10.89,7.08,17.1.68,5.88.15,11.89.15,18.94Z"/>
      <path class="cls-6" d="m203.22,553.72c5.99,20.44,11.99,40.88,17.96,61.32.28.97.34,2.01.5,3.01-7.82-1.34-7.72-8.69-9.74-13.84-6.96-17.7-13.19-35.69-19.98-54.34,4.04,1.7,8.29.58,11.26,3.85Z"/>
      <path class="cls-5" d="m314.63,614.42c-3.3-1.25-5.56-61.03-1.52-63.27,6.07-3.37,8.89,14.88,8.41,21.65-.84,11.77-1.4,43.71-6.89,41.62Z"/>
      <path class="cls-6" d="m244.99,445.01c-5.47-1.98-16.13-16.58-8.75-28.77,9.5-15.7,27.59-13.42,30.12-12,2.92,1.22,10.26,6.47,6.55,10.58-2.11,2.33-4.25,3.52-9.05,1.63,1.7-6.14,1.14-7.07-4.96-5.99-7.36,1.31-13.32,5.03-16.47,12.18-3.49,7.91-3.14,14.36,2.57,22.38Z"/>
      <path class="cls-3" d="m327.85,588.15c-.21-11.49.17-38.49,4.26-38.93,5.74-.62,6.25,13.42,5.68,18-1.65,13.38-4.19,44.54-8.73,44.01-2.84-.33-1.22-16.92-1.22-23.08Z"/>
      <path class="cls-3" d="m340.09,607.45c-2.14-.68,5.72-62.72,11.2-62.27,7.88.92-5.69,64.02-11.2,62.27Z"/>
      <path class="cls-6" d="m216.47,555.48c6.63,21.28,13.27,42.56,20.09,64.45-4.93-1.28-5.27-5.2-6.32-8.2-6.21-17.62-12.17-35.33-18.26-52.98-.73-2.12-1.79-4.12-2.69-6.17,3.76-2.41,4.98,1.47,7.19,2.9Z"/>
      <path class="cls-3" d="m244.99,445.01c-5.45-6.93-6.05-14.46-2.57-22.38,3.15-7.15,9.12-10.87,16.47-12.18,6.1-1.09,6.66-.15,4.96,5.99-11.69.49-15.15,4.65-16.21,19.62-.14,2.03-.17,4.11.12,6.12.35,2.41-.89,2.83-2.78,2.82Z"/>
    </g>
    <g>
      <path class="cls-2" d="m189.97,609.55c-2.99-1.14-5.92-1.85-8.74-2.37-2.83-.52-5.6-.85-8.44-1-5.68-.29-11.66.04-19.12,1.43-2.52.5-6.65,1.19-15.08,3.51-4.81,1.34-10.4,3.12-16.42,5.65-3,1.32-6.12,2.73-9.24,4.6-3.11,1.85-6.28,3.99-9.22,6.86-1.46,1.45-2.86,3.08-4.06,4.99-.57.99-1.19,1.93-1.6,3.07l-.66,1.66c-.17.58-.3,1.18-.43,1.78-.33,1.18-.37,2.42-.42,3.65-.01.31-.03.62-.03.93l.08.94.09.94.19.94c.5,2.51,1.66,4.92,3.16,6.87,1.5,1.96,3.28,3.5,5.1,4.74,1.82,1.26,3.69,2.21,5.55,3.02,3.73,1.63,7.43,2.62,11.03,3.43,7.21,1.55,14.05,2.16,20.26,2.52,6.21.33,11.79.36,16.47.3,4.68-.06,8.47-.21,11.09-.33,2.62-.13,4.07-.21,4.07-.21,0,0,19.45-.89,43.96-4.49,6.13-.89,12.58-1.93,19.14-3.17,6.63-1.21,13.1-2.88,19.55-4.33,3.22-.75,6.42-1.49,9.56-2.22,1.57-.36,3.13-.73,4.67-1.08,1.53-.34,3.04-.67,4.54-.99,5.99-1.28,11.69-2.38,16.89-3.32,11.06-2,17.96-2.98,21.56-3.55,14.57-2.18,22.67-4.81,34.62-9.29-12.65-1.64-21.25-2.31-36.02-.25-3.65.53-10.64,1.51-21.88,3.53-5.29.95-11.1,2.07-17.2,3.38-1.52.33-3.07.67-4.63,1.01-1.54.36-3.09.72-4.66,1.08-3.13.73-6.32,1.47-9.53,2.21-6.43,1.45-12.95,3.13-19.28,4.28-6.38,1.21-12.71,2.24-18.72,3.12-12.04,1.76-22.83,2.89-30.59,3.55-7.77.66-12.51.89-12.51.89,0,0-1.42.07-3.97.2-2.55.11-6.24.26-10.77.31-4.53.05-9.91.02-15.82-.31-5.89-.34-12.34-.94-18.73-2.33-3.17-.71-6.37-1.59-9.22-2.85-2.88-1.22-5.39-2.89-6.81-4.76-.71-.93-1.15-1.89-1.37-2.94l-.09-.39-.03-.42-.04-.42.03-.43c.04-.58,0-1.16.2-1.72.48-2.26,1.97-4.58,4.08-6.62,4.26-4.11,10.06-7.12,15.44-9.44,5.46-2.3,10.7-3.98,15.22-5.25,7.94-2.2,11.9-2.88,14.29-3.38,7.09-1.4,12.64-2.55,17.92-3.86,2.65-.66,5.23-1.3,7.9-1.96,2.7-.66,5.48-1.32,8.64-1.72Z"/>
      <path class="cls-7" d="m96.51,645.74c1.97-6.12,5.28-9.86,8.87-13.32,1.86-1.7,3.84-3.33,6.09-4.99,2.28-1.63,4.79-3.33,7.75-5.08,2.05-1.1,5.29-3.16,12.84-5.96.43-.12,1.4-.52,1.4-.52,0,0,.35-.11.74-.23.24-.08.5-.17.71-.24,8.86-2.87,16.54-3.85,20.32-4.26,7.03-.75,12.55-1.03,17.88-1.38,5.33-.29,10.49-.6,16.86-.22-5.44-3.33-10.59-5.46-16.2-6.82-5.62-1.31-11.78-1.92-19.5-1.18-4.17.4-12.56,1.45-22.36,4.62-.15.05-.3.1-.47.16l-.32.12c-.42.16-.8.31-.8.31,0,0-1.12.33-1.57.52-8.39,3.12-12.13,5.49-14.46,6.79-3.4,2.06-6.23,4.28-8.64,6.59-2.39,2.35-4.32,4.84-5.87,7.46-1.47,2.68-2.65,5.43-3.21,8.42-.56,2.98-.64,6.09-.05,9.22Z"/>
    </g>
    <g>
      <path class="cls-2" d="m812.77,612.91c3.16.4,5.95,1.06,8.64,1.72,2.67.66,5.26,1.31,7.9,1.96,5.28,1.3,10.83,2.45,17.92,3.85,2.39.5,6.34,1.17,14.29,3.38,4.52,1.27,9.77,2.95,15.22,5.25,5.38,2.32,11.18,5.33,15.44,9.44,2.1,2.05,3.6,4.36,4.08,6.62.2.56.16,1.14.2,1.72l.03.43-.04.42-.03.42-.09.39c-.22,1.05-.66,2.01-1.37,2.94-1.42,1.87-3.94,3.54-6.81,4.76-2.85,1.26-6.05,2.14-9.22,2.85-6.39,1.38-12.84,1.98-18.73,2.33-5.9.32-11.28.36-15.82.31-4.53-.05-8.22-.2-10.77-.31-2.55-.13-3.97-.2-3.97-.2,0,0-4.74-.23-12.51-.89-7.76-.66-18.56-1.79-30.59-3.55-6.02-.88-12.35-1.9-18.72-3.12-6.33-1.16-12.85-2.83-19.28-4.28-3.21-.75-6.4-1.49-9.53-2.21-1.57-.36-3.12-.72-4.66-1.08-1.56-.34-3.11-.68-4.63-1.01-6.11-1.31-11.92-2.42-17.2-3.38-11.25-2.02-18.24-3-21.88-3.53-14.77-2.06-23.37-1.39-36.02.25,11.95,4.48,20.05,7.11,34.62,9.29,3.6.56,10.5,1.55,21.56,3.55,5.2.94,10.91,2.04,16.89,3.32,1.49.33,3.01.66,4.54.99,1.54.36,3.1.72,4.67,1.08,3.14.73,6.34,1.47,9.56,2.22,6.45,1.45,12.92,3.12,19.55,4.33,6.56,1.24,13.01,2.28,19.14,3.17,24.51,3.59,43.96,4.49,43.96,4.49,0,0,1.45.07,4.07.21,2.62.12,6.41.27,11.09.33,4.68.06,10.26.03,16.47-.3,6.21-.36,13.05-.97,20.26-2.52,3.6-.81,7.31-1.8,11.03-3.43,1.86-.81,3.73-1.76,5.55-3.02,1.81-1.25,3.6-2.78,5.1-4.74,1.5-1.95,2.66-4.36,3.16-6.87l.19-.94.09-.94.08-.94c0-.31-.02-.62-.03-.93-.05-1.24-.09-2.47-.42-3.65-.14-.59-.26-1.2-.43-1.78l-.66-1.66c-.41-1.14-1.03-2.08-1.6-3.07-1.19-1.91-2.6-3.54-4.06-4.99-2.94-2.87-6.1-5.01-9.22-6.86-3.12-1.86-6.24-3.28-9.24-4.6-6.02-2.53-11.61-4.31-16.42-5.65-8.42-2.32-12.55-3-15.08-3.51-7.46-1.4-13.45-1.73-19.12-1.43-2.84.15-5.6.48-8.44,1-2.82.52-5.75,1.23-8.74,2.37Z"/>
      <path class="cls-7" d="m906.23,649.11c.59-3.13.51-6.25-.05-9.22-.57-2.99-1.74-5.74-3.21-8.42-1.55-2.62-3.48-5.1-5.87-7.45-2.41-2.31-5.25-4.53-8.64-6.59-2.33-1.3-6.07-3.66-14.46-6.79-.45-.19-1.57-.52-1.57-.52,0,0-.38-.15-.8-.31l-.32-.12c-.16-.05-.32-.11-.47-.16-9.8-3.17-18.19-4.21-22.36-4.62-7.72-.74-13.88-.14-19.5,1.17-5.61,1.36-10.75,3.5-16.2,6.82,6.37-.38,11.53-.07,16.86.22,5.33.35,10.85.63,17.88,1.38,3.79.4,11.46,1.39,20.32,4.26.22.07.47.16.71.24.39.12.74.23.74.23,0,0,.97.4,1.4.52,7.54,2.8,10.79,4.86,12.84,5.96,2.96,1.76,5.47,3.45,7.75,5.08,2.25,1.67,4.22,3.29,6.09,4.99,3.59,3.46,6.9,7.2,8.87,13.32Z"/>
    </g>
    <g>
      <path class="cls-5" d="m538.22,414.17c.08,3.41-2.33,4.03-4.96,5.13-23.89,10.03-47.39,8.11-70.72-1.81-1.19-13.89-2.38-27.77-3.58-41.66-1.32-15.31-2.63-30.61-4.01-45.91-1.51-16.7-3.06-33.4-4.67-50.09-1.12-11.61-1.55-23.3-3.78-34.79,31.95,1.24,63.92.29,95.87.64,3.06.03,6.12.26,9.19.39-.04,1.23-.02,2.47-.11,3.7-2.04,25.6-3.76,51.23-6.31,76.77-1.12,11.21-2.01,22.43-2.84,33.65-1.33,18-3.96,35.9-4.09,53.98Z"/>
      <path class="cls-5" d="m462.65,506.86c11.62-3.65,23.38-6.82,35.45-8.41,3.49-.46,7.26.41,10.79,1.15,9.22,1.95,18.39,4.17,27.58,6.28,3.3,4.02,1.64,8.92,2.22,13.38,1.68,12.98,2.99,26.01,4.34,39.03,1.96,18.93,3.98,37.86,5.67,56.81,1.22,13.65,2.84,27.29,2.72,41.04-6.55,5.31-14.72,6.6-22.5,7.41-23.35,2.42-46.71,2.43-69.77-3.26-3.68-.91-6.54-3.41-10.19-4.15,2.53-18.6,3.48-37.34,5.1-56.02.95-10.99,1.6-22.05,2.87-32.97,2.33-20.07,4.03-40.18,5.72-60.3Zm37.22,16.87c-8.58.04-14.9,6.3-14.86,14.71.04,7.46,7.38,15.85,13.73,15.71,9.34-.21,16.08-6.86,16.01-15.78-.07-8.54-6.31-14.68-14.88-14.63Z"/>
      <path class="cls-6" d="m446.51,245.03c2.23,11.49,2.66,23.18,3.78,34.79,1.61,16.69,3.16,33.39,4.67,50.09,1.38,15.3,2.68,30.61,4.01,45.91,1.2,13.89,2.39,27.77,3.58,41.66-12.78,4.08-25.24,9.57-39.09,8.89-10.56-.52-20.05-4.81-29.67-8.61-2.16-.85-2.5-2.86-2.73-4.96-2.04-18.57-3.87-37.17-6.28-55.69-3.22-24.73-5.68-49.55-8.79-74.28-1.51-12.05-1.65-24.3-4.57-36.18-.54-2.2.11-3.57,2.73-3.48,18.36.6,66.61,1.74,72.36,1.86Z"/>
      <path class="cls-3" d="m538.22,414.17c.13-18.09,2.76-35.98,4.09-53.98.83-11.22,1.72-22.44,2.84-33.65,2.55-25.55,4.26-51.18,6.31-76.77.1-1.23.08-2.47.11-3.7,7.68-2.66,15.78-1.43,23.67-2.46,16.06-2.12,32.24.7,48.38-.05-1.02,2.48-1.4,5.03-1.42,7.73-.08,9.4-2.23,18.59-2.77,28-.83,14.4-3.05,28.72-4.6,43.09-1.33,12.38-2.47,24.78-3.83,37.15-1.51,13.75-3.21,27.48-4.77,41.22-.89,7.78-.5,16.16-10,19.53-.77.27-.41.89.06,1.32,0,0,.03-.02.03-.02-2-1.43-3.42.05-4.95.98-9.85,4.98-20.13,4.54-30.47,2.17-5.38-1.23-10.6-3.19-15.99-4.39-3.62-.81-5.65-2.81-6.68-6.16Z"/>
      <path class="cls-3" d="m617.26,647.87c-9.04,6.81-20.14,7.25-30.57,9.66-11.82,2.73-23.63,2-35.26-1.38.11-13.75-1.51-27.39-2.72-41.04-1.69-18.95-3.72-37.89-5.68-56.82-1.35-13.02-2.66-26.05-4.34-39.04-.58-4.46-2.21-13.38-2.21-13.38,7.08-.23,13.7-2.6,20.33-4.76,8.28-2.7,16.52-2.29,24.83-.38,3.46,1.56,6.94,3.08,10.36,4.7,3.35,1.58,6.07,4.06,6.68,7.73,2.24,13.51,4.15,27.08,6.28,40.62,2.76,17.64,5.91,35.24,8.31,52.93,1.85,13.65,5.32,27.19,3.99,41.16Z"/>
      <path class="cls-6" d="m452.71,504.49c-7.62-2.53-15.25-4.77-23.44-5.28-9.45-.58-17.99,2.94-26.94,4.51-2.71.48-5.3,1.49-5.86,7.23-.99,10.14-3.42,20.48-5.16,30.76-2.24,13.35-3.6,26.83-6.21,40.16-3.31,16.98-5.04,34.25-7.68,51.36-1.73,11.3-.59,13.19,10.56,16.91,9.66,3.23,19.41,5.84,29.39,7.9,10.84,2.24,21.33,3.23,31.59-1.92,2.53-18.6,3.49-37.34,5.09-56.01.95-10.99,1.61-22.06,2.87-32.98,2.34-20.07,4.03-40.17,5.72-60.29-3.49-.09-6.66-1.27-9.94-2.37Zm-14.89,41.43c-5.56,4.83-11.91,6.9-19.21,4.24-9.1-3.29-14.15-9.61-14.08-19.45.02-5.24-.18-10.37,4.6-14.72,2.73-2.48,4.96-4.6,9.12-5.21,16.13-2.36,21.66,2.96,24.98,13.37,2.57,8.1,1.4,15.84-5.4,21.77Z"/>
      <path class="cls-3" d="m694.2,267.33c.87-7.83-.57-27.18-.31-29.82,14.76-.06,29.51-.11,44.27-.18,2.15-.01,3.8.54,5.29,2.38,13.06,16.26,26.55,32.18,38.67,49.18-3.8,8.12-7.57,16.26-11.42,24.36-5.54,11.64-11.17,23.24-16.7,34.88-14.72,30.96-29.37,61.96-44.17,92.89-2.27,4.75-5.9,8.34-11.26,9.77-18.69,4.98-35.94-12.37-34.41-27.64,9.77,3.15,18.65.63,27.37-3.95,2.42-1.27,3.66-2.87,4.66-5.22,11.14-26.02,22.39-52,33.54-78.02,5.05-11.79,10.81-23.29,14.72-35.56,1.35-4.05.34-8.08-1.99-11.05-4.73-6.01-8.55-12.51-12.24-19.14-1.44-2.58-3.82-2.78-6.38-2.78-9.87-.01-19.75-.07-29.62-.1Z"/>
      <path class="cls-5" d="m440.4,442.66c33.03-.07,66.05-.14,99.08-.21.14,12.4-1.98,24.64-2.79,36.97-26.04.09-52.09.18-78.13.26-4.45.01-14.66,0-14.66,0-.04-12.46-2.51-24.66-3.5-37.03Z"/>
      <path class="cls-6" d="m451.52,229.82h-76.2c5.26-5.38,12.03-7.8,18.33-10.95,9.77-4.88,19.92-8.98,29.86-13.48,11.18-5.07,22.33-10.31,33.69-14.99,3.53-1.46,11.53-4.71,15.15-5.72,9.78-2.71,17.36-2.25,27.31-1.68-.95,3.64-6.9,6.23-9.33,8.6-12.33,12.06-24.81,23.97-37.23,35.94l-1.57,2.28Z"/>
      <path class="cls-5" d="m490.32,191.6c2.42-2.37,6.74-8.74,6.74-8.74,3.16-.07,7.03.15,7.03.15,9.36,10.12,20.24,21.73,29.5,31.93,4.23,4.65,9.13,8.78,12.03,14.54-30.07.09-66.06.25-96.13.34,0,0,28.48-26.16,40.81-38.22Z"/>
      <path class="cls-3" d="m536.7,479.42c.81-12.33,2.93-24.57,2.79-36.97,18.14.05,36.29.09,54.43.14.35,8.35-1.99,16.41-2.92,24.62-.43,3.77-.3,8.52-4.51,11.07-1.86.95-3.78,1.43-5.92,1.41-14.62-.14-29.24-.19-43.87-.27Z"/>
      <path class="cls-5" d="m664.14,423.15c-1.53,15.27,15.72,32.62,34.41,27.64,5.36-1.43,8.99-5.02,11.26-9.77,14.8-30.93,29.45-61.93,44.17-92.89,5.54-11.64,11.17-23.24,16.7-34.88,3.85-8.1,7.62-16.24,11.42-24.36,1.95.33,5.58,1.35,7.54,1.68,0,0-2.65,4.72-3.83,7.18-8.9,18.51-18.04,36.9-26.78,55.48-14.21,30.2-28.26,60.47-42.23,90.78-5.91,12.83-25.26,18.78-39.46,11.64-15.06-7.57-21.97-20.06-21.48-36.79,2.76,1.43,5.52,2.86,8.28,4.29Z"/>
      <path class="cls-5" d="m358.91,246.11c1.1,7.23,7.6,59.42,9.74,77.89.09.79-.16,1.62-.25,2.44-1.39-.11-2.14-1.11-2.86-2.11-11.49-16-24.44-30.84-36.48-46.4-4.83-6.24-12.82-13.33-16.8-20.99,5.41-1.37,12.03-1.14,16.98-1.88,9.84-1.49,19.51-9.32,29.67-8.95Z"/>
      <path class="cls-3" d="m545.64,229.48c-2.9-5.76-7.8-9.89-12.03-14.54-9.27-10.2-20.14-21.81-29.5-31.93,3.85-.17,7.51-.21,10.72,0,1.94,1.26,1.72,1.94,2.81,2.58,8.37,4.88,16.79,8.94,25.57,13,22.42,10.37,44.96,20.44,68.01,29.33-.91,1.71-2.5,1.93-4.19,1.92-20.46-.12-40.92-.23-61.37-.35Z"/>
      <path class="cls-6" d="m664.14,423.15c-2.76-1.43-5.52-2.86-8.28-4.29-.11-.4-.49-7.59,1.76-9.44,1.89-1.56,1.7,2.01,4.07,3.16,7.71,3.73,15.06,4.2,22.81.25,3.41-1.74,4.16-5.36,5.11-7.88,6.78-17.9,14.92-35.24,22.19-52.91,6.16-14.95,12.58-29.94,19.69-44.53,6.89-14.14-2.82-23.64-3.53-25.08,3.3.7,5.77,5.69,7.93,7.77,3.21,3.08,4.32,7.94,8.53,10.21-3.91,12.27-9.67,23.77-14.72,35.56-11.14,26.02-22.4,51.99-33.54,78.02-1,2.35-2.24,3.95-4.66,5.22-8.72,4.58-17.6,7.1-27.37,3.95Z"/>
      <path class="cls-6" d="m440.4,442.66c.99,12.37,3.7,24.56,3.74,37.03-9.46-.04-18.94.34-28.37-.22-10.75-.64-13.22-2.28-13.71-13.09-.36-7.81-2.09-15.56-3.27-23.72h41.62Z"/>
      <path class="cls-6" d="m359.4,249.59c-10.17-.37-20.32,3.99-30.16,5.48-4.95.75-10.43,1.2-15.85,2.57,3.98,7.66,10.84,14.07,15.67,20.31,12.04,15.56,25,30.4,36.48,46.4.72,1,1.47,2,2.86,2.11.12,3.9,2.05,7.57,1.37,12.2-8.44-7.49-14.84-16.31-21.95-24.47-13.74-15.77-27.3-31.7-41.08-47.43-3.1-3.54-7.44-5.54-12.12-5.97-2.4-.22-3.75-1.45-3.75-3.19,0-5.23,38.71-8.79,56.3-12.88,1.76-.41,3.52-.87,5.3-1.16,4.81-.78,6.73.19,6.93,6.04Z"/>
      <path class="cls-6" d="m588.56,423.81c-.47-.42,6.89-3.27,7.66-3.54,9.5-3.37,9.12-11.75,10-19.53,1.56-13.74,3.26-27.47,4.77-41.22,1.36-12.37,2.5-24.77,3.83-37.15,1.55-14.36,3.77-28.68,4.6-43.09.54-9.41,2.69-18.6,2.77-28,.02-2.69.4-5.25,1.42-7.73,2.93-.45,4.88-.43,4.83,3.77-.14,13.87-2.73,27.53-3.37,41.33-.41,8.82-1.79,17.5-2.75,26.24-2.11,19.14-4.16,38.3-6.21,57.45-1.25,11.72-2.98,23.42-3.5,35.17-.3,6.86-2.36,10.98-9.28,12.23-2.38.43-12.42,3.44-14.77,4.07Z"/>
      <path class="cls-6" d="m617.26,647.87c1.32-13.97-2.14-27.51-3.99-41.16-2.4-17.7-5.56-35.29-8.32-52.94-2.12-13.54-4.03-27.1-6.28-40.62-.61-3.67-3.33-6.14-6.67-7.72-3.43-1.62-6.9-3.13-10.36-4.7,7.69-.09,14.82,2.58,21.89,4.99,4.55,1.55,2.89,6.8,3.55,10.13,2.7,13.66,4.36,27.52,6.49,41.29,3.17,20.46,6.46,40.9,9.63,61.35,1.02,6.58,1.73,13.2,2.78,19.77,1.11,6.96-3.25,8.74-8.72,9.61Z"/>
      <path class="cls-6" d="m789.64,290.56c-1.95-.33-5.58-1.36-7.54-1.68-12.12-17-25.61-32.92-38.67-49.18-1.48-1.84-3.14-2.39-5.29-2.38-14.76.07-29.51.12-44.27.18-2.68-2.02-2.08-7.89-2.08-7.89-.16-1.28,2.27-2.35,3.74-2.42,6.57-.31,13.16-.33,19.75-.39,7.62-.07,15.24.05,22.85-.18,2.68-.08,4.59.58,6.41,2.6,15.76,17.48,29.3,36.73,43.78,55.23,1.1,1.4,2.79,3.26,1.32,6.11Z"/>
      <path class="cls-6" d="m661.35,224.89c5.35,0,10.71.14,16.06-.06,3.02-.11,4.52.58,4.44,3.98-.24,9.26.37,18.57-.51,27.76-.63,6.59-6.08,10.57-11.98,12.44-7.47,2.38-13.92,1.73-21.71-1.07-9.96-3.59-8.63-11.2-7.84-17.37.87-6.76,1.18-13.46.82-20.15-.27-4.92,1.57-5.91,5.92-5.62,4.92.33,9.88.08,14.82.09Zm-2.93,8.65c-9.69-.08-15.31,5.65-15.33,15.64-.02,10.19,5.55,16.44,14.75,16.58,11.78.17,17.48-4.96,17.57-15.84.09-10.07-6.36-16.29-16.99-16.38Z"/>
      <path class="cls-5" d="m744.43,300.4c-4.21-2.27-11.6-15.09-14.89-15.8-4.38-5.48-7.13-9.57-14.75-9.69-9.36-.15-16.72,1.89-22.41,9.57-3.07,4.15-7.16,5.25-12.75,4.86-12.07-.84-24.24-.18-36.37-.3-1.94-.02-5.27,1.34-5.34-2.17-.07-3.42,3.22-2.27,5.25-2.55,10.87-1.47,21.75.23,32.63.06,12.48-.2,17.65-4.76,18.4-17.06,9.87.04,19.75.09,29.62.1,2.56,0,4.94.2,6.38,2.78,3.69,6.63,7.51,13.13,12.24,19.14,2.33,2.97,3.34,7,1.99,11.05Z"/>
      <path class="cls-6" d="m611.21,227.91c-23.05-8.89-45.58-18.96-68.01-29.33-8.78-4.06-17.69-7.8-26.05-12.68-1.09-.64-3.01-2.94-3.01-2.94,4.77-2.89,9.61-1.07,14.25,1.04,17.61,8,35.47,15.46,53.16,23.29,13.33,5.89,26.56,12.03,39.82,18.07,1.72.78,3.05,2.04,4.06,3.82-5.05,3.12-9.58.12-14.23-1.27Z"/>
      <path class="cls-6" d="m581.64,479.66c4.21-2.56,8.93-8.67,9.36-12.45.93-8.21,3.27-16.27,2.92-24.62,5.86-1.42,7.67.78,7.4,6.79-.37,8.32-2.09,16.44-2.71,24.7-.29,4.08-14.48,5.94-16.96,5.58Z"/>
      <path class="cls-6" d="m312.54,241.98c3.09-2.92,5.97-5.68,8.87-8.43,2.81-2.66,6.21-4.4,10.52-4.51,10.96-.28,19.77-1.65,29.97.48-15.89,6.07-32.63,9.06-49.37,12.46Z"/>
      <path class="cls-5" d="m525.54,129.33c2.52-.1,3.82,1.75,6.35,1.65-3,12.33-5.98,24.66-9.01,36.97-.63,2.55-1.03,5.86-4.87,4.74-2.15-.79-1.42-3.99-.95-6.05,2.39-10.58,4.95-21.12,7.35-31.69.26-1.15,1.18-4.39,1.13-5.62Z"/>
      <path class="cls-6" d="m432.91,534.73c1.11-7.94-2.13-11.86-7.48-14.06-2.56-1.05-5.48-1.11-4.77,3.36.22,1.4.21,2.87.1,4.29-.28,3.4-1.02,7.21-5.28,6.66-3.55-.46-5.08-3.93-4.59-7.44.79-5.65,5.12-8.8,9.81-10.56,4.45-1.67,8.86-.1,12.02,3.83,3.09,3.84,3.93,7.89.19,13.92Z"/>
      <path class="cls-6" d="m658.47,238.52c5.76.02,10.9,4.53,10.82,9.47-.06,3.5-1.22,11.07-12.15,10.83-2.88-.06-8.94-2.53-8.93-10.86-.16-4.13,5.64-9.47,10.26-9.45Z"/>
      <path class="cls-6" d="m524.32,131.29c-13.77.13-27.54.37-41.31.33-3.66,0-4.49.71-3.58,4.56,2.83,12.03,5.14,24.18,7.65,36.32-4.7,1.96-6.75-.39-7.79-4.61-3.13-12.75-6.18-25.53-9.59-38.21-.62-2.32.13-2.93,1.73-3.65,10.3-4.62,20.65-9.91,32.27-8.42,9.58,1.23,18.76,4.65,27.59,8.68,2.22,1.01,3.04,2.8.58,4.69-2.52.1-5.05.21-7.57.31Z"/>
    </g>
    <g>
      <path class="cls-5" d="m767.34,585.85c12.32-.93,20,7.66,28.59,14.18,2.78,2.11-.82,2.63-1.7,3.79-1.33.5-2.72.91-4,1.53-24.39,11.73-49.68,15.78-76.55,10.53-22.75-4.44-40.59-17.02-56.95-32.28-5.17-4.82-10.14-10.13-12.34-17.24,1.34-.49,2.65-1.31,4.02-1.41,14.59-1.07,28.68.35,41.95,7.38,8.49,4.5,17.08,8.87,26.61,11.16,16.68,4.02,33.55,2.12,50.36,2.35Z"/>
      <path class="cls-5" d="m643.21,548.84c.29-.53,5.31-5.05,5.73-5.45,28.11-26.82,68.64-30.5,101.51-17.6,15.95,6.26,29.23,16.34,40.23,29.21,5.07,5.93,9.96,12.47,10.97,20.78-2,.58-3.65-.33-5.19-1.35-15.44-10.14-32.54-13.45-50.77-13.44-11.47,0-22.71-2.37-33.37-7.08-15.13-6.68-30.54-10.93-47.51-9.04-2.15.24-20.16,4.75-21.6,3.96Z"/>
      <path class="cls-5" d="m805.69,552.63c-3.78-7.58-15.91-23.53-19.75-25.42,5.64-10.48,13.86-20.38,22.09-28.84,5.07-5.22,9.19-11.51,15.83-15.11,3.03,4.26,3.93,9.43,4.39,14.24,1.83,19.03-.91,40.39-2.91,43.58-5.09,4.86-11.25,11.17-19.65,11.56Z"/>
      <path class="cls-3" d="m644.4,566.36c2.2,7.11,7.17,12.42,12.34,17.24,16.37,15.26,34.2,27.84,56.95,32.28,26.87,5.25,52.16,1.2,76.55-10.53,1.28-.62,5.32-3.1,6.65-3.6-.1,1.5-3.21,4.92-4.48,5.83-12.53,8.95-25,17.16-41.08,19.62-15.75,2.42-31.05,1.1-46.03-2.2-13.07-2.88-25.15-9.4-36.35-17.18-12.36-8.59-26.94-29.1-26.94-41.76.79.1,1.59.21,2.38.31Z"/>
      <path class="cls-6" d="m801.65,575.79c-1.01-8.31-5.91-14.85-10.97-20.78-10.99-12.87-24.28-22.95-40.23-29.21-32.88-12.91-73.4-9.22-101.51,17.6-.42.4-4,4.2-5.62,5.49-1.03-.06-2.75.39-1.7-1.92,5.17-11.43,13.76-19.72,24.08-26.38,10.35-6.69,22.51-8.85,34.14-10.68,40.84-5.64,63.38,12.37,71.24,17.88,13.15,9.23,24.13,19.94,30.72,34.9,2.96,6.71,4.53,16.08,5.41,23.13-2.35-2.07-4.06-7.43-5.56-10.02Z"/>
      <path class="cls-3" d="m801.65,575.79c1.51,2.59,2.76,4.85,4.71,7.64,1.78,2.99.67,3.95-2.17,2.55-4.02-1.98-8.14-4.01-11.63-6.77-8.7-6.89-19.02-7.96-29.41-9.44-13.6-1.94-27.48.02-40.98-3.5-9.64-2.52-18.27-7.24-27.31-11.1-11.55-4.93-27.77-7.04-40.33-8.08,1.32-2.65,8.03-2.93,10.18-3.17,16.97-1.89,32.46,3.33,47.59,10.01,10.66,4.71,21.9,7.08,33.37,7.08,18.23,0,35.34,3.31,50.77,13.44,1.55,1.02,3.2,1.93,5.19,1.35Z"/>
      <path class="cls-6" d="m812.17,470.79c-5.99,2.26-15.34-1.21-21.55-.05-20.03,3.74-51.65,30.42-52.24,31.69-3.19-1.16-8.06-1.13-12.21-.69-3.7.39-4.24-1.65-2.31-4.44,5.2-7.52,12.09-13.66,19.37-18.67,14.8-10.19,31.67-15.22,49.81-13.75,5.41.44,13.63,1.55,19.13,5.92Z"/>
      <path class="cls-6" d="m644.4,566.36c-.79-.1-1.59-.21-2.38-.31-1.61-3.52,1.39-3.41,2.93-3.78,16.1-3.85,30.5-.84,44.78,5.57,8.1,3.63,15.81,8.33,24.18,11.09,6.74,2.23,14.18,2.76,21.35,3.15,8.95.48,17.94-.19,26.88,1.2,2.14.33,8.7,1.79,11.31,2.9-16.81-.24-39.79,1.33-56.47-2.69-9.54-2.3-18.12-6.66-26.61-11.16-13.27-7.03-27.36-8.45-41.95-7.38-1.37.1-2.68.92-4.02,1.41Z"/>
      <path class="cls-6" d="m823.86,483.25c-6.64,3.59-10.76,9.89-15.83,15.11-8.23,8.46-15.74,18.76-21.38,29.24-2.32-1.26-4.07-2.31-2.61-5.3,8.27-16.93,20.46-30.25,36.63-39.88.83-.5,2.42-.54,3.2.84Z"/>
      <path class="cls-3" d="m805.08,551.43c8.4-.39,11.88-7.71,16.97-12.57,1.12-1.07,3.34-2.73,4.88-3.5,0,6.46-8.13,22.67-11.69,28.64-.71,1.19-1.64,2.66-3.22,2.53-1.8-.15-1.64-1.97-2.13-3.27-1.5-4.01-3.23-7.86-4.81-11.83Z"/>
      <path class="cls-3" d="m767.98,513.25c-2.31-4.43,4.07-5.96,5.85-8.99,4.59-7.83,11.65-15.33,19.73-19.94-3.24,9.04-11.4,16.8-16.38,24.68-.84,1.33-4.88,6.99-9.2,4.25Z"/>
      <path class="cls-5" d="m768.27,513.45c-9.87-3.61-20.02-7.42-29.89-11.03.59-1.27,3.8-5.21,4.67-6.24,13.27-15.68,27.54-21.71,47.57-25.45,6.22-1.16,12.12-1.25,17.94-.83,2.72.2,3.45.65,4.94,1.82-7.38,4.13-14.04,8.07-20.64,13.57-7.15,5.95-13.41,12.32-18,20.15-1.78,3.03-2.92,5.81-6.59,8.01Z"/>
    </g>
    <g>
      <g>
        <path class="cls-6" d="m845.2,442.35c19.82-12.05,39.63-24.1,59.45-36.15,6.11-3.72.52-13.34-5.62-9.61-19.82,12.05-39.63,24.1-59.45,36.15-6.11,3.72-.52,13.34,5.62,9.61h0Z"/>
        <path class="cls-6" d="m840.36,346.48c10.48-9.38,20.95-18.76,31.43-28.14,5.35-4.79-2.55-12.64-7.87-7.87-10.48,9.38-20.95,18.76-31.43,28.14-5.35,4.79,2.55,12.64,7.87,7.87h0Z"/>
        <path class="cls-6" d="m866.98,544.09c20.01-3.51,40.01-7.02,60.02-10.52,7.04-1.23,4.06-11.96-2.96-10.73-20.01,3.51-40.01,7.02-60.02,10.52-7.04,1.23-4.06,11.96,2.96,10.73h0Z"/>
        <path class="cls-6" d="m870.59,588.67c18.38.5,36.76,1,55.14,1.5,7.16.19,7.16-10.93,0-11.13-18.38-.5-36.76-1-55.14-1.5-7.16-.19-7.16,10.93,0,11.13h0Z"/>
      </g>
      <g>
        <path class="cls-6" d="m160.41,429.44c-19.82-12.05-39.63-24.1-59.45-36.15-6.14-3.73-11.73,5.89-5.62,9.61,19.82,12.05,39.63,24.1,59.45,36.15,6.14,3.73,11.73-5.89,5.62-9.61h0Z"/>
        <path class="cls-6" d="m167.51,335.31c-10.48-9.38-20.95-18.76-31.43-28.14-5.32-4.76-13.22,3.08-7.87,7.87,10.48,9.38,20.95,18.76,31.43,28.14,5.32,4.76,13.22-3.08,7.87-7.87h0Z"/>
        <path class="cls-6" d="m135.97,530.05c-20.01-3.51-40.01-7.02-60.02-10.52-7-1.23-10.01,9.49-2.96,10.73,20.01,3.51,40.01,7.02,60.02,10.52,7,1.23,10.01-9.49,2.96-10.73h0Z"/>
        <path class="cls-6" d="m129.41,574.24c-18.38.5-36.76,1-55.14,1.5-7.15.19-7.18,11.32,0,11.13,18.38-.5,36.76-1,55.14-1.5,7.15-.19,7.18-11.32,0-11.13h0Z"/>
      </g>
      <g>
        <g>
          <path class="cls-5" d="m672.6,193c-4.91-.11-8.3-3.35-8.26-7.91.04-4.74,3.85-8.4,8.66-8.33,4.59.07,8.37,3.98,8.29,8.59-.07,4.47-3.8,7.75-8.69,7.65Z"/>
          <path class="cls-5" d="m194.36,253.03c.02-5.13,3.28-8.36,8.44-8.35,4.53,0,7.77,3.42,7.86,8.29.1,5.09-3.35,8.83-8.15,8.85-4.58.02-8.17-3.86-8.15-8.79Z"/>
          <path class="cls-5" d="m114.66,463.34c4.96.41,7.79,2.97,7.65,7.44-.13,3.93-2.87,7.41-6.78,7.13-3.8-.26-7.41-2.96-7.36-7.61.05-4.2,2.52-6.66,6.5-6.96Z"/>
          <path class="cls-5" d="m900.57,468.94c-.08,6.14-2.33,8.1-6.49,8.3-5.04.24-7.26-3.81-7.79-7.14-.32-2,1.35-7.11,6.23-6.43,4.17.59,8.24,1.5,8.05,5.27Z"/>
          <path class="cls-5" d="m743.03,200.39c-3.36.18-5.01-1.81-5.14-4.77-.12-2.95,1.4-5.17,4.68-5.33,3.99-.19,5.59,2.92,5.74,5.87.13,2.61-2.55,3.98-5.28,4.22Z"/>
        </g>
        <g>
          <path class="cls-6" d="m237.7,371.44c-.08,6.32-4.18,10.63-9.89,10.4-3.95-.16-9.72-6.14-9.86-10.21-.17-4.94,5.37-9.68,11.19-9.57,5.5.1,8.64,3.54,8.56,9.38Z"/>
          <path class="cls-6" d="m319.89,182.75c6.41.05,9.08,2.28,9.38,6.98.34,5.19-2.93,7.57-7.38,7.83-4.57.26-7.28-2.89-7.25-7.22.03-4.15,2.45-7.1,5.25-7.59Z"/>
          <path class="cls-6" d="m818.26,304.01c4.01-.21,5.72,2.13,5.39,6.08-.31,3.66-2.29,6.11-6.14,6.25-4.02.14-6.02-2.43-6.07-6.08-.05-4.07,2.19-6.43,6.83-6.25Z"/>
          <path class="cls-6" d="m845.68,373.19c4.24.11,6.33,1.71,6.46,5.06.12,2.92-2,4.65-4.53,4.7-3.15.06-5.21-2.26-5.21-5.33,0-2.26.78-4.88,3.28-4.43Z"/>
          <path class="cls-6" d="m665.25,345.55c.13,2.08-1.55,3.13-3.81,3.13-2.71,0-3.56-1.36-3.58-3.82-.02-2.47.79-3.64,3.53-3.82,3.69-.25,3.73,2.52,3.86,4.51Z"/>
        </g>
        <g>
          <path class="cls-3" d="m274.54,202.56c4.45.25,7.51,2.39,7.63,7.01.12,4.58-2.98,7.69-7.21,7.72s-8.57-5.25-7.91-8.09c.85-3.66,2.76-6.92,7.5-6.64Z"/>
          <path class="cls-3" d="m815.05,258.05c-.36-4.45,1.03-6.04,4.48-6.03,3.68.02,6.31,1.64,6,5.26-.27,3.17-2.08,6.82-5.76,6.86-4.26.04-4.33-4.05-4.73-6.09Z"/>
          <path class="cls-3" d="m113.97,508.66c.04,2-.99,3-2.94,3.03-1.94.03-3.03-.97-3.08-2.93-.05-1.88.69-3.22,2.78-3.1,1.81.1,2.98,1.11,3.24,3Z"/>
        </g>
        <g>
          <g>
            <path class="cls-5" d="m791.4,397.97c2.1,5.26.41,8.8-5.03,10.51-4.46,1.4-8.88-.77-9.86-4.84,2.64-8.1,6.53-10.01,13.91-6.84,0,0-.17-.11-.17-.11.39.43.77.85,1.16,1.28Z"/>
            <path class="cls-6" d="m792.12,400.37c-7.38-3.17-12.97-4.82-15.61,3.28.09-1.81-.05-3.68.34-5.42.7-3.11,2.38-5.97,5.77-6.17,3.33-.19,8.78,1.22,9.51,8.31Z"/>
          </g>
          <g>
            <path class="cls-5" d="m408.65,160.74c2.69,2.89.91,6.87-.46,8.55-1.87,2.28-4.5,4.85-8.38,3.45-3.29-1.19-5.34-3.59-4.72-7.46,2.41-5.32,6.63-6.87,12.1-5.85,0,0-.19-.05-.19-.05.83.12,1.5.42,1.64,1.36Z"/>
            <path class="cls-6" d="m409.56,161.96c-5.47-1.03-11.99.86-14.4,6.18-1-4.17.29-10.22,4.3-11.74,3.24-1.23,8.63,1.71,10.1,5.56Z"/>
          </g>
          <g>
            <path class="cls-5" d="m138.47,370.77c3.92,1,3.22,4.05,1.9,6.1-1.64,2.54-4.06,5.34-7.72,2.25-.27-4.32-.11-8.35,5.83-8.35Z"/>
            <path class="cls-6" d="m140.6,371.86c-5.93,0-6.3,4.09-6.03,8.42-3.88-1.29-6.27-6.46-3.45-9.87,2.52-3.04,7.17-1.53,9.48,1.45Z"/>
          </g>
          <g>
            <path class="cls-5" d="m604.89,155.78c4.63,1.67,4.41,5.51,3.39,9.01-1.1,3.78-4.47,5.17-8.2,4.73-3.73-.43-6.52-2.16-6.08-6.63,1.8-5.17,7.73-4.02,10.89-7.11Z"/>
            <path class="cls-6" d="m604.89,155.78c-3.16,3.09-9.09,1.94-10.89,7.11-.06-7.51,3.64-9.93,10.89-7.11Z"/>
          </g>
          <g>
            <path class="cls-5" d="m305.2,360.85c-2.67,5-6.46,5.99-11.27,2.94-3.94-2.5-5.14-7.28-2.67-10.66,7.89-3.21,11.86-1.47,14.2,6.21,0,0-.03-.2-.03-.2-.08.57-.15,1.14-.23,1.71Z"/>
            <path class="cls-6" d="m303.83,362.95c-2.34-7.68-4.69-13.02-12.58-9.81,1.44-1.1,2.77-2.41,4.36-3.24,2.83-1.48,6.1-2.03,8.43.42,2.3,2.42,4.73,7.49-.21,12.63Z"/>
          </g>
        </g>
      </g>
    </g>
    <g>
      <g>
        <path class="cls-6" d="m348.76,858.38c.72.03,1.66.07,2.82.1,1.16.03,2.31.05,3.44.05,1.61,0,3.15-.02,4.62-.05,1.47-.03,2.52-.05,3.13-.05,2.77,0,5.08.39,6.91,1.18,1.83.79,3.2,1.86,4.11,3.21.91,1.35,1.36,2.87,1.36,4.54,0,1.03-.21,2.12-.62,3.29-.41,1.16-1.12,2.26-2.13,3.29-1.01,1.03-2.39,1.88-4.13,2.54-1.75.67-3.95,1-6.62,1h-4.93v-1.03h4.42c2.43,0,4.29-.38,5.57-1.16,1.28-.77,2.16-1.8,2.62-3.08.46-1.28.69-2.71.69-4.29,0-2.7-.64-4.8-1.93-6.29s-3.48-2.23-6.6-2.23c-1.58,0-2.6.29-3.08.87-.48.58-.72,1.76-.72,3.54v25.47c0,1.23.1,2.16.31,2.77.21.62.61,1.03,1.21,1.23.6.21,1.48.34,2.65.41v1.03c-.79-.07-1.77-.11-2.95-.13s-2.37-.03-3.57-.03c-1.33,0-2.58,0-3.75.03-1.16.02-2.11.06-2.82.13v-1.03c1.16-.07,2.05-.21,2.65-.41.6-.21,1-.62,1.21-1.23.21-.62.31-1.54.31-2.77v-25.47c0-1.27-.1-2.2-.31-2.8-.21-.6-.61-1.01-1.21-1.23-.6-.22-1.48-.35-2.65-.39v-1.03Zm8.17,18.23c1.85.07,3.3.15,4.37.23,1.06.08,1.93.16,2.59.23.67.07,1.31.15,1.93.26,2.29.38,3.95,1.07,4.96,2.08,1.01,1.01,1.75,2.58,2.23,4.7l1.28,5.24c.34,1.51.69,2.59,1.05,3.26.36.67.92.98,1.67.95.58-.03,1.07-.22,1.46-.57.39-.34.81-.8,1.26-1.39l.77.57c-.72,1.06-1.46,1.87-2.23,2.44-.77.56-1.86.85-3.26.85-1.27,0-2.38-.38-3.34-1.13-.96-.75-1.68-2.22-2.16-4.42l-1.13-5.14c-.31-1.47-.66-2.75-1.05-3.83-.39-1.08-.94-1.93-1.64-2.54-.7-.62-1.74-.92-3.11-.92h-5.55l-.1-.87Z"/>
        <path class="cls-6" d="m407.66,858.38c-.14,1.2-.23,2.36-.28,3.49-.05,1.13-.08,1.99-.08,2.57,0,.62.02,1.21.05,1.77.03.57.07,1.04.1,1.41h-1.18c-.21-2.02-.5-3.62-.87-4.8-.38-1.18-1.02-2.02-1.93-2.52-.91-.5-2.27-.75-4.08-.75h-4.26c-1.16,0-2.05.09-2.65.28-.6.19-1,.58-1.21,1.18-.21.6-.31,1.53-.31,2.8v25.47c0,1.23.1,2.16.31,2.77.21.62.61,1.02,1.21,1.21.6.19,1.48.28,2.65.28h3.75c2.16,0,3.79-.29,4.9-.87,1.11-.58,1.92-1.53,2.41-2.85.5-1.32.86-3.11,1.1-5.37h1.18c-.1.92-.15,2.16-.15,3.7,0,.65.03,1.58.08,2.8.05,1.22.15,2.47.28,3.77-1.75-.07-3.71-.11-5.91-.13-2.19-.02-4.14-.03-5.85-.03h-2.9c-1.18,0-2.46,0-3.83.03-1.37.02-2.76.03-4.16.05-1.4.02-2.74.04-4.01.08v-1.03c1.16-.07,2.05-.21,2.65-.41.6-.21,1-.62,1.21-1.23.21-.62.31-1.54.31-2.77v-25.47c0-1.27-.1-2.2-.31-2.8-.21-.6-.61-1.01-1.21-1.23-.6-.22-1.48-.35-2.65-.39v-1.03c1.27.03,2.6.06,4.01.08,1.4.02,2.79.04,4.16.05,1.37.02,2.64.03,3.83.03h2.9c1.57,0,3.36,0,5.37-.03,2-.02,3.79-.06,5.37-.13Zm-8.83,17.56v1.03h-9.4v-1.03h9.4Zm1.49-6.78c-.14,1.95-.2,3.44-.18,4.47.02,1.03.03,1.97.03,2.82s.02,1.8.05,2.82c.03,1.03.12,2.52.26,4.47h-1.18c-.14-1.09-.3-2.16-.49-3.21-.19-1.04-.6-1.9-1.23-2.57-.63-.67-1.7-1-3.21-1v-1.03c1.13,0,1.99-.23,2.59-.69.6-.46,1.04-1.05,1.31-1.77.27-.72.46-1.46.56-2.23.1-.77.21-1.46.31-2.08h1.18Z"/>
        <path class="cls-6" d="m413.31,858.38c.72.03,1.66.07,2.82.1,1.16.03,2.31.05,3.44.05,1.61,0,3.15-.02,4.62-.05,1.47-.03,2.52-.05,3.13-.05,4.14,0,7.24.94,9.29,2.82,2.05,1.88,3.08,4.31,3.08,7.29,0,1.23-.21,2.53-.62,3.88-.41,1.35-1.12,2.6-2.13,3.75-1.01,1.15-2.39,2.08-4.13,2.8s-3.95,1.08-6.62,1.08h-4.93v-1.03h4.42c2.43,0,4.29-.46,5.57-1.39,1.28-.92,2.16-2.14,2.62-3.65.46-1.51.69-3.13.69-4.88,0-3.25-.64-5.68-1.93-7.29s-3.48-2.41-6.6-2.41c-1.58,0-2.6.29-3.08.87-.48.58-.72,1.76-.72,3.54v25.47c0,1.23.13,2.16.39,2.77.26.62.76,1.03,1.52,1.23.75.21,1.85.34,3.29.41v1.03c-.89-.07-2.02-.11-3.39-.13-1.37-.02-2.76-.03-4.16-.03s-2.58,0-3.75.03c-1.16.02-2.11.06-2.82.13v-1.03c1.16-.07,2.05-.21,2.65-.41.6-.21,1-.62,1.21-1.23.21-.62.31-1.54.31-2.77v-25.47c0-1.27-.1-2.2-.31-2.8-.21-.6-.61-1.01-1.21-1.23-.6-.22-1.48-.35-2.65-.39v-1.03Z"/>
        <path class="cls-6" d="m460.25,857.66c3.25,0,6.1.74,8.55,2.21,2.45,1.47,4.35,3.59,5.7,6.34,1.35,2.76,2.03,6.1,2.03,10.04s-.69,7.19-2.08,10.07-3.31,5.12-5.78,6.73c-2.47,1.61-5.29,2.41-8.47,2.41s-6.1-.74-8.55-2.21c-2.45-1.47-4.35-3.59-5.7-6.37-1.35-2.77-2.03-6.11-2.03-10.01s.7-7.19,2.11-10.07c1.4-2.88,3.33-5.12,5.78-6.73s5.26-2.41,8.45-2.41Zm-.21.92c-2.23,0-4.16.77-5.8,2.31-1.64,1.54-2.92,3.66-3.83,6.37-.91,2.71-1.36,5.84-1.36,9.4s.5,6.79,1.51,9.48c1.01,2.69,2.38,4.76,4.11,6.21,1.73,1.46,3.64,2.18,5.73,2.18,2.23,0,4.16-.77,5.8-2.31,1.64-1.54,2.92-3.67,3.83-6.39.91-2.72,1.36-5.85,1.36-9.37s-.51-6.83-1.52-9.5c-1.01-2.67-2.37-4.73-4.08-6.19-1.71-1.46-3.63-2.18-5.75-2.18Z"/>
        <path class="cls-6" d="m492.4,857.81c1.71,0,3.01.2,3.9.59.89.39,1.68.83,2.36,1.31.41.24.74.42,1,.54.26.12.5.18.74.18.34,0,.59-.19.74-.56.15-.38.28-.94.39-1.7h1.18c-.03.58-.08,1.28-.13,2.08-.05.8-.09,1.87-.1,3.18-.02,1.32-.03,3.06-.03,5.21h-1.18c-.1-1.64-.46-3.22-1.08-4.72-.62-1.51-1.52-2.74-2.7-3.7-1.18-.96-2.73-1.44-4.65-1.44-1.81,0-3.31.55-4.49,1.64s-1.77,2.53-1.77,4.31c0,1.54.39,2.83,1.18,3.88.79,1.04,1.84,1.99,3.16,2.82,1.32.84,2.75,1.74,4.29,2.7,1.78,1.1,3.36,2.18,4.75,3.26,1.39,1.08,2.48,2.27,3.29,3.57.8,1.3,1.21,2.88,1.21,4.72,0,2.19-.5,4-1.49,5.44-.99,1.44-2.31,2.52-3.95,3.24-1.64.72-3.46,1.08-5.44,1.08-1.81,0-3.25-.21-4.31-.62-1.06-.41-1.97-.84-2.72-1.28-.75-.48-1.34-.72-1.75-.72-.34,0-.59.19-.74.57-.15.38-.28.94-.39,1.69h-1.18c.07-.72.11-1.57.13-2.54.02-.98.03-2.25.05-3.83.02-1.57.03-3.56.03-5.96h1.18c.14,2.05.52,3.97,1.16,5.75.63,1.78,1.61,3.21,2.93,4.29,1.32,1.08,3.07,1.62,5.26,1.62,1.13,0,2.2-.23,3.21-.69,1.01-.46,1.84-1.2,2.49-2.21.65-1.01.98-2.32.98-3.93,0-1.4-.33-2.63-1-3.67-.67-1.04-1.6-2.02-2.8-2.93-1.2-.91-2.6-1.84-4.21-2.8-1.61-.99-3.12-2-4.52-3.03-1.4-1.03-2.52-2.22-3.36-3.57-.84-1.35-1.26-2.99-1.26-4.9,0-2.02.45-3.69,1.36-5.01.91-1.32,2.1-2.29,3.57-2.93,1.47-.63,3.05-.95,4.72-.95Z"/>
        <path class="cls-6" d="m537.38,858.38c-.14,1.3-.23,2.56-.28,3.77-.05,1.22-.08,2.15-.08,2.8,0,.82.02,1.59.05,2.31.03.72.07,1.35.1,1.9h-1.18c-.24-2.4-.56-4.29-.98-5.67s-1.13-2.39-2.16-3c-1.03-.62-2.62-.92-4.78-.92h-2.77v29.22c0,1.37.13,2.4.39,3.08.26.69.76,1.15,1.51,1.39.75.24,1.85.39,3.29.46v1.03c-.89-.07-2.02-.11-3.39-.13-1.37-.02-2.76-.03-4.16-.03-1.54,0-2.99,0-4.34.03-1.35.02-2.44.06-3.26.13v-1.03c1.44-.07,2.53-.22,3.29-.46.75-.24,1.26-.7,1.51-1.39.26-.68.39-1.71.39-3.08v-29.22h-2.77c-2.12,0-3.71.31-4.75.92-1.04.62-1.77,1.62-2.18,3-.41,1.39-.74,3.28-.98,5.67h-1.18c.07-.55.11-1.18.13-1.9.02-.72.03-1.49.03-2.31,0-.65-.03-1.58-.08-2.8-.05-1.21-.15-2.47-.28-3.77,1.44.03,3,.07,4.7.1,1.7.03,3.4.05,5.11.05h9.32c1.7,0,3.4-.02,5.11-.05,1.71-.03,3.27-.07,4.67-.1Z"/>
        <path class="cls-6" d="m566.65,858.38c-.14,1.2-.23,2.36-.28,3.49-.05,1.13-.08,1.99-.08,2.57,0,.62.02,1.21.05,1.77.03.57.07,1.04.1,1.41h-1.18c-.21-2.02-.5-3.62-.87-4.8-.38-1.18-1.02-2.02-1.93-2.52-.91-.5-2.27-.75-4.08-.75h-4.26c-1.17,0-2.05.09-2.65.28-.6.19-1,.58-1.21,1.18-.21.6-.31,1.53-.31,2.8v25.47c0,1.23.1,2.16.31,2.77.21.62.61,1.02,1.21,1.21.6.19,1.48.28,2.65.28h3.75c2.16,0,3.79-.29,4.9-.87s1.92-1.53,2.41-2.85c.5-1.32.86-3.11,1.1-5.37h1.18c-.1.92-.15,2.16-.15,3.7,0,.65.03,1.58.08,2.8.05,1.22.15,2.47.28,3.77-1.75-.07-3.71-.11-5.91-.13-2.19-.02-4.14-.03-5.85-.03h-2.9c-1.18,0-2.46,0-3.83.03s-2.76.03-4.16.05c-1.4.02-2.74.04-4.01.08v-1.03c1.16-.07,2.04-.21,2.64-.41.6-.21,1-.62,1.21-1.23.21-.62.31-1.54.31-2.77v-25.47c0-1.27-.1-2.2-.31-2.8-.21-.6-.61-1.01-1.21-1.23-.6-.22-1.48-.35-2.64-.39v-1.03c1.27.03,2.6.06,4.01.08,1.4.02,2.79.04,4.16.05,1.37.02,2.64.03,3.83.03h2.9c1.57,0,3.36,0,5.37-.03,2-.02,3.79-.06,5.37-.13Zm-8.83,17.56v1.03h-9.4v-1.03h9.4Zm1.49-6.78c-.14,1.95-.2,3.44-.18,4.47.02,1.03.03,1.97.03,2.82s.02,1.8.05,2.82c.03,1.03.12,2.52.26,4.47h-1.18c-.14-1.09-.3-2.16-.49-3.21-.19-1.04-.6-1.9-1.23-2.57-.63-.67-1.7-1-3.21-1v-1.03c1.13,0,1.99-.23,2.59-.69.6-.46,1.04-1.05,1.31-1.77.27-.72.46-1.46.57-2.23.1-.77.21-1.46.31-2.08h1.18Z"/>
        <path class="cls-6" d="m572.3,858.38c.72.03,1.66.07,2.82.1,1.16.03,2.31.05,3.44.05,1.61,0,3.15-.02,4.62-.05,1.47-.03,2.52-.05,3.13-.05,2.77,0,5.08.39,6.91,1.18,1.83.79,3.2,1.86,4.11,3.21.91,1.35,1.36,2.87,1.36,4.54,0,1.03-.21,2.12-.62,3.29s-1.12,2.26-2.13,3.29c-1.01,1.03-2.39,1.88-4.13,2.54-1.75.67-3.96,1-6.62,1h-4.93v-1.03h4.42c2.43,0,4.29-.38,5.57-1.16,1.28-.77,2.16-1.8,2.62-3.08.46-1.28.69-2.71.69-4.29,0-2.7-.64-4.8-1.93-6.29-1.28-1.49-3.48-2.23-6.6-2.23-1.58,0-2.6.29-3.08.87-.48.58-.72,1.76-.72,3.54v25.47c0,1.23.1,2.16.31,2.77.21.62.61,1.03,1.21,1.23.6.21,1.48.34,2.64.41v1.03c-.79-.07-1.77-.11-2.95-.13-1.18-.02-2.37-.03-3.57-.03-1.34,0-2.59,0-3.75.03-1.16.02-2.11.06-2.82.13v-1.03c1.16-.07,2.04-.21,2.64-.41.6-.21,1-.62,1.21-1.23.21-.62.31-1.54.31-2.77v-25.47c0-1.27-.1-2.2-.31-2.8-.21-.6-.61-1.01-1.21-1.23-.6-.22-1.48-.35-2.64-.39v-1.03Zm8.17,18.23c1.85.07,3.3.15,4.37.23,1.06.08,1.93.16,2.59.23.67.07,1.31.15,1.93.26,2.29.38,3.95,1.07,4.96,2.08s1.75,2.58,2.23,4.7l1.28,5.24c.34,1.51.69,2.59,1.05,3.26.36.67.92.98,1.67.95.58-.03,1.07-.22,1.46-.57.39-.34.81-.8,1.26-1.39l.77.57c-.72,1.06-1.46,1.87-2.23,2.44-.77.56-1.86.85-3.26.85-1.27,0-2.38-.38-3.34-1.13-.96-.75-1.68-2.22-2.16-4.42l-1.13-5.14c-.31-1.47-.66-2.75-1.05-3.83-.39-1.08-.94-1.93-1.64-2.54-.7-.62-1.74-.92-3.11-.92h-5.55l-.1-.87Z"/>
        <path class="cls-6" d="m618.67,858.38v1.03c-1.16.04-2.05.16-2.64.39-.6.22-1,.63-1.21,1.23-.21.6-.31,1.53-.31,2.8v25.47c0,1.23.1,2.16.31,2.77.21.62.61,1.03,1.21,1.23.6.21,1.48.34,2.64.41v1.03c-.79-.07-1.77-.11-2.95-.13-1.18-.02-2.37-.03-3.57-.03-1.34,0-2.59,0-3.75.03-1.16.02-2.11.06-2.82.13v-1.03c1.16-.07,2.04-.21,2.64-.41.6-.21,1-.62,1.21-1.23.21-.62.31-1.54.31-2.77v-25.47c0-1.27-.1-2.2-.31-2.8-.21-.6-.61-1.01-1.21-1.23-.6-.22-1.48-.35-2.64-.39v-1.03c.72.03,1.66.07,2.82.1,1.16.03,2.41.05,3.75.05,1.2,0,2.39-.02,3.57-.05,1.18-.03,2.16-.07,2.95-.1Z"/>
        <path class="cls-6" d="m637.42,858.12l12.53,32.3c.51,1.3,1.09,2.17,1.75,2.59.65.43,1.25.66,1.8.69v1.03c-.69-.07-1.52-.11-2.52-.13s-1.99-.03-2.98-.03c-1.33,0-2.58,0-3.75.03-1.17.02-2.11.06-2.83.13v-1.03c1.75-.07,2.86-.37,3.34-.9.48-.53.38-1.67-.31-3.42l-9.55-25.52.82-.67-8.94,23.21c-.55,1.37-.87,2.53-.98,3.47s0,1.69.28,2.23c.29.55.79.94,1.49,1.18.7.24,1.58.38,2.64.41v1.03c-.96-.07-1.96-.11-3-.13-1.04-.02-2.01-.03-2.9-.03s-1.58,0-2.18.03c-.6.02-1.16.06-1.67.13v-1.03c.68-.17,1.39-.57,2.11-1.21.72-.63,1.37-1.72,1.95-3.26l12.07-31.12h.82Zm6.26,21.83v1.03h-15.3l.51-1.03h14.79Z"/>
      </g>
      <g>
        <path class="cls-1" d="m393.89,706.94v3.42c-3.88.12-6.82.54-8.81,1.28-2,.74-3.34,2.11-4.02,4.11-.68,2-1.03,5.11-1.03,9.33v84.87c0,4.11.34,7.19,1.03,9.24.68,2.05,2.02,3.42,4.02,4.11,1.99.68,4.93,1.14,8.81,1.37v3.42c-2.63-.23-5.9-.37-9.84-.43-3.94-.06-7.9-.09-11.89-.09-4.45,0-8.61.03-12.49.09-3.88.06-7.02.2-9.41.43v-3.42c3.88-.23,6.81-.68,8.81-1.37,1.99-.68,3.34-2.05,4.02-4.11.68-2.05,1.03-5.13,1.03-9.24v-94.11l.68.51-41.92,112.59h-2.74l-43.12-111.05v90.35c0,4.11.37,7.33,1.11,9.67.74,2.34,2.22,4,4.45,4.96,2.22.97,5.56,1.57,10.01,1.8v3.42c-2.05-.23-4.74-.37-8.04-.43-3.31-.06-6.45-.09-9.41-.09s-5.73.03-8.64.09c-2.91.06-5.33.2-7.27.43v-3.42c3.88-.23,6.81-.83,8.81-1.8,1.99-.97,3.34-2.62,4.02-4.96.68-2.34,1.03-5.56,1.03-9.67v-83.16c0-4.22-.34-7.33-1.03-9.33-.68-1.99-2.03-3.36-4.02-4.11-2-.74-4.94-1.17-8.81-1.28v-3.42c1.94.12,4.36.23,7.27.34,2.91.12,5.79.17,8.64.17,2.51,0,5.1-.06,7.79-.17,2.68-.11,4.93-.23,6.76-.34l38.84,102.33-2.91,1.37,38.5-103.18h8.04c3.99,0,7.96-.06,11.89-.17,3.94-.11,7.21-.23,9.84-.34Z"/>
        <path class="cls-1" d="m464.56,704.55c10.84,0,20.33,2.46,28.49,7.36,8.15,4.91,14.49,11.95,18.99,21.13,4.5,9.18,6.76,20.34,6.76,33.45s-2.31,23.96-6.93,33.54c-4.62,9.58-11.04,17.05-19.25,22.42-8.21,5.36-17.62,8.04-28.23,8.04s-20.34-2.45-28.49-7.36c-8.16-4.9-14.49-11.98-18.99-21.22-4.51-9.24-6.76-20.36-6.76-33.37s2.34-23.96,7.02-33.54c4.68-9.58,11.09-17.05,19.25-22.42,8.15-5.36,17.54-8.04,28.15-8.04Zm-.68,3.08c-7.42,0-13.86,2.57-19.34,7.7-5.48,5.13-9.73,12.21-12.75,21.22-3.02,9.01-4.53,19.45-4.53,31.31s1.68,22.62,5.05,31.57c3.36,8.96,7.93,15.86,13.69,20.71,5.76,4.85,12.12,7.27,19.08,7.27,7.41,0,13.86-2.57,19.34-7.7,5.48-5.13,9.72-12.23,12.75-21.3,3.02-9.07,4.53-19.48,4.53-31.23s-1.68-22.76-5.05-31.66c-3.37-8.9-7.9-15.77-13.6-20.62-5.71-4.85-12.09-7.27-19.17-7.27Z"/>
        <path class="cls-1" d="m578.69,706.94v3.42c-3.88.12-6.82.54-8.81,1.28-2,.74-3.34,2.11-4.02,4.11-.68,2-1.03,5.11-1.03,9.33v84.87c0,4.11.34,7.19,1.03,9.24.68,2.05,2.02,3.42,4.02,4.11,1.99.68,4.93,1.14,8.81,1.37v3.42c-2.63-.23-5.9-.37-9.84-.43-3.94-.06-7.9-.09-11.89-.09-4.45,0-8.62.03-12.49.09-3.88.06-7.02.2-9.41.43v-3.42c3.88-.23,6.82-.68,8.81-1.37,2-.68,3.34-2.05,4.02-4.11.68-2.05,1.03-5.13,1.03-9.24v-84.87c0-4.22-.34-7.33-1.03-9.33-.68-1.99-2.03-3.36-4.02-4.11-2-.74-4.94-1.17-8.81-1.28v-3.42c2.4.12,5.53.23,9.41.34,3.88.12,8.04.17,12.49.17,3.99,0,7.96-.06,11.89-.17,3.94-.11,7.21-.23,9.84-.34Zm54.41,0v3.42c-3.54.46-6.96,1.6-10.27,3.42-3.31,1.83-6.62,4.85-9.92,9.07l-33.03,42.27,3.76-8.38,41.07,57.49c1.94,2.85,4.05,5.08,6.33,6.67,2.28,1.6,5.19,2.85,8.73,3.76v3.42c-2.74-.23-6.13-.37-10.18-.43-4.05-.06-7.5-.09-10.35-.09-1.94,0-4.31.03-7.1.09-2.8.06-6.3.2-10.52.43v-3.42c3.88-.23,6.33-.91,7.36-2.05,1.03-1.14.62-3.02-1.2-5.65l-24.98-37.65c-2.28-3.53-4.31-6.19-6.07-7.96-1.77-1.77-3.59-2.94-5.48-3.51-1.88-.57-4.25-.91-7.1-1.03v-3.42c4.79-.11,8.81-1.05,12.06-2.82,3.25-1.77,5.96-4.02,8.13-6.76l16.43-20.88c3.76-4.79,6.33-8.84,7.7-12.15,1.37-3.31,1.31-5.84-.17-7.61-1.48-1.77-4.62-2.71-9.41-2.82v-3.42c2.17.12,4.39.2,6.67.26,2.28.06,4.54.12,6.76.17,2.22.06,4.3.08,6.25.08,2.96,0,5.7-.06,8.21-.17,2.51-.11,4.62-.23,6.33-.34Z"/>
        <path class="cls-1" d="m695.22,706.09l41.75,107.63c1.71,4.34,3.65,7.22,5.82,8.64,2.17,1.43,4.16,2.2,5.99,2.31v3.42c-2.28-.23-5.08-.37-8.38-.43-3.31-.06-6.62-.09-9.92-.09-4.45,0-8.61.03-12.49.09-3.88.06-7.02.2-9.41.43v-3.42c5.82-.23,9.52-1.22,11.12-3,1.6-1.77,1.25-5.56-1.03-11.38l-31.83-85.04,2.74-2.22-29.77,77.34c-1.83,4.56-2.91,8.41-3.25,11.55-.34,3.14-.03,5.62.94,7.44.97,1.83,2.62,3.14,4.96,3.94,2.34.8,5.27,1.26,8.81,1.37v3.42c-3.19-.23-6.53-.37-10.01-.43-3.48-.06-6.7-.09-9.67-.09s-5.28.03-7.27.09c-2,.06-3.85.2-5.56.43v-3.42c2.28-.57,4.62-1.91,7.02-4.02,2.4-2.11,4.56-5.73,6.5-10.87l40.21-103.7h2.74Zm20.88,72.72v3.42h-50.99l1.71-3.42h49.28Z"/>
      </g>
    </g>
  </g>
</svg>