<?xml version="1.0" encoding="UTF-8"?>
<svg xmlns="http://www.w3.org/2000/svg" viewBox="0 0 64 64">
  <defs>
    <style>
      .cls-1 {
        fill: #fcfbec;
      }

      .cls-2 {
        fill: #543a47;
      }

      .cls-3 {
        fill: #ae9280;
      }
    </style>
  </defs>
  <path class="cls-2" d="m7.16,36.79c.93.12,1.86.28,2.79.37,4.01.4,7.09-.98,8.79-4.86,5.81,6.63,13.9,4.01,17.69-3.35.17,1.02.26,1.06-.24,2.03-1.28,2.46-.49,3.71,2.76,4.3,3.46.63,6.24-.99,8.33-3.73.81-1.06,1.7-2.11,1.84-3.57.21.12.37.15.39.23.35,1.14-.49,2.7,1.29,3.35,2.15.78,4.13.54,6.08-.62.78-.46,1.12-1.47,2.13-1.6-.06.77-.41,1.43-.67,2.14-.42,1.13-1.57,1.69-1.92,2.82-.29.65-4.36.94-5.9.18-1.22-.61-1.89-.45-2.58.7-2.54,4.29-7.81,3.85-11.1,2.56-.11-.04-.2-.13-.29-.21-.68-.6-1.05-1.77-2.15-1.63-.97.12-1.48,1.13-2.23,1.71-3.41,2.61-8.09,2.28-12.08-1.02-.94-.78-1.33-.69-2.07.18-1.25,1.45-2.76,2.49-4.71,3-1.67.44-2.97.05-4.27-.84-.63-.72-1.25-1.43-1.88-2.15Z"/>
  <path class="cls-1" d="m56.24,34.48c.35-1.13,1.68-1.86,2.1-3,.26-.71.62-1.37.67-2.14.92-3.63-1.9-7.31-5.9-7.53-.75-.04-1.17-.06-.89-.9.51-1.51.18-3.06.27-4.58,6.69.35,11.35,6.92,8.55,13.59-.86,2.04-2.36,4.06-4.8,4.57Z"/>
  <path class="cls-3" d="m7.21,21.84c.56-.28,1.13-.57,1.69-.85.33.49.24,1.29,1.07,1.54.03-.38.07-.67.07-.96.09-3.83,2.04-6.02,5.73-6.76,2.74-.55,5.15.45,7.61,1.27,6.39,2.13,12.29.91,17.87-2.54,1.64-1.02,3.38-1.65,5.29-1.97,1.51-.25,2.66.97,4.11.85.77,1.23,1.61,2.42,1.84,3.91-.09,1.53.24,3.07-.27,4.58-.28.84.14.86.89.9,3.99.23,6.82,3.9,5.9,7.53-1,.13-1.35,1.14-2.13,1.6-1.95,1.16-3.93,1.4-6.08.62-1.78-.65-.94-2.2-1.29-3.35-.02-.07-.18-.11-.39-.23-.14,1.46-1.04,2.51-1.84,3.57-2.09,2.74-4.87,4.36-8.33,3.73-3.25-.59-4.04-1.84-2.76-4.3.5-.96.41-1.01.24-2.03-3.79,7.36-11.88,9.98-17.69,3.35-1.7,3.87-4.78,5.25-8.79,4.86-.93-.09-1.86-.24-2.79-.37l.04.02c-.16-.13-.32-.26-.48-.38-3.47-3.03-2.56-7.15.15-9.76.6-.58,1.2-.57,1.89-.07.76.55,1.48,1.23,2.99,1.39-2.22-1.93-3.59-3.9-4.54-6.16Zm31.72-1.86c-.68.07-1.4.42-1.42,1.56-.03,1.45,1.62,3.28,2.95,3.17.96-.08,1.7-.52,1.68-1.65-.02-1.29-1.74-3.09-3.21-3.07Zm7.71-.36c1.27.01,1.9-.51,1.91-1.56.02-1.44-1.63-2.97-3.19-2.97-1.13,0-1.33.71-1.34,1.64-.01,1.71,1.03,2.88,2.62,2.89Zm-33.07,4.53c.13.82.36,1.68,1.54,1.66,1.25-.02,2.84-1.9,2.76-3.27-.06-1.1-.79-1.54-1.8-1.52-1.15.02-2.54,1.73-2.51,3.13Zm13.55-2.49c-.13-.82-.56-1.41-1.6-1.38-1.37.04-2.97,1.71-2.85,3.12.07.78.36,1.53,1.36,1.57,1.22.04,3.08-1.89,3.09-3.3Z"/>
  <path class="cls-1" d="m51.2,13.28c-1.45.12-3.15-1.98-4.66-1.72-1.9.32-3.65.95-5.29,1.97-5.58,3.46-11.48,4.67-17.87,2.54-2.45-.82-4.87-1.82-7.61-1.27-3.69.74-5.64,2.94-5.73,6.76,0,.29-.04.58-.07.96-.84-.25-.74-1.05-1.07-1.54-.84-4.12.84-7.75,4.63-9.66,1.54-.78,2.99-1.97,4.99-1.43.64.17,1.01.28,1.24.97,1.91,5.66,9.7,6.69,13.41,4.51,2.47-1.45,4.38-3.4,4.33-6.58-.01-.73.12-1.25,1.02-1.35,4.78-.53,12.35,3.46,12.69,5.84Z"/>
  <path class="cls-3" d="m12.93,43.57c.62.07,1.2-.04,1.75-.33.26.59.57,1.17.78,1.79,1.76,5.11,3.48,10.24,5.27,15.34.3.87.4,2,1.82,2.37-1.97-6.34-3.88-12.5-5.8-18.66,1.34-.95,2.24-.55,2.95.86,1.48,2.93,2.33,6.08,3.34,9.18.9,2.77,1.8,5.54,2.74,8.29.36,1.04.17,1.74-1.02,1.56-2.23-.33-4.55-.41-6.51-1.78-.05-.29-.06-.59-.14-.87-1.72-5.92-3.45-11.84-5.18-17.75Z"/>
  <path class="cls-3" d="m28.53,63.62c-.78.04-1.2-.24-1.45-.97-1.81-5.34-3.66-10.67-4.52-16.27-.13-.82-.44-2.19.35-2.45,1.01-.34,1.69.81,2.19,1.71,1.68,3.02,2.11,6.41,2.67,9.73.41,2.41,1.61,8.21.75,8.25Z"/>
  <path class="cls-3" d="m27.83,46.31c0-.96-.26-2.14.63-2.4.92-.27,1.52.78,1.94,1.55,1.28,2.38,1.7,5.03,2.08,7.66.41,2.82.58,4.73.88,7.56.07.64.15,2.48-.58,2.61-.74.13-1.5-1-1.7-1.84-1.26-5.28-2.66-9.87-3.24-15.15Z"/>
  <path class="cls-1" d="m7.16,36.79c.63.72,2.94,2.27,3.57,2.98-3.53,0-10.63-4.37-8.05-12.91.8-2.1,2.59-3.99,4.53-5.03.95,2.26,2.32,4.23,4.54,6.16-1.51-.17-2.24-.84-2.99-1.39-.69-.5-1.29-.51-1.89.07-2.71,2.61-3.62,6.72-.15,9.76.16.13.32.26.48.38l-.04-.02Z"/>
  <path class="cls-3" d="m36.68,62.47c-1.12.13-1.39-4.46-1.88-6.73-.75-3.47-1.09-6.67-1.3-10.25-.02-.52-.29-1.63.73-1.82.88-.17,1.23.47,1.53.97.74,1.25,1.11,3.21,1.28,4.84.43,4.23.62,12.88-.35,13Z"/>
  <path class="cls-3" d="m42.14,54.1c-.09,1.99-.18,7.66-.94,7.65-.62-.01-2.1-8.72-2.27-12.68-.07-1.62-.29-3.23,0-4.88.17-.96.5-.87,1.12-.52,1.99,1.1,1.84,3.15,2.04,4.95.2,1.7.04,3.44.04,5.48Z"/>
  <path class="cls-1" d="m12.93,43.57c1.73,5.92,3.46,11.83,5.18,17.75.08.28.1.58.14.87-2.26-.39-2.23-2.52-2.81-4.01-2.01-5.13-3.8-10.33-5.76-15.73,1.17.49,2.39.17,3.25,1.11Z"/>
  <path class="cls-3" d="m45.07,61.14c-.95-.36-1.6-17.67-.44-18.32,1.75-.98,2.56,4.31,2.43,6.27-.24,3.41-.4,12.65-1.99,12.05Z"/>
  <path class="cls-1" d="m24.98,12.1c-1.58-.57-4.65-4.8-2.52-8.33C25.2-.78,30.42-.12,31.14.29c.84.35,2.96,1.87,1.89,3.06-.61.68-1.23,1.02-2.61.47.49-1.78.33-2.05-1.43-1.73-2.12.38-3.84,1.46-4.75,3.53-1.01,2.29-.9,4.16.74,6.48Z"/>
  <path class="cls-2" d="m48.88,53.54c-.06-3.33.05-11.14,1.23-11.27,1.66-.18,1.8,3.89,1.64,5.21-.48,3.87-1.21,12.89-2.52,12.74-.82-.1-.35-4.9-.35-6.68Z"/>
  <path class="cls-2" d="m52.41,59.13c-.62-.2,1.65-18.16,3.23-18.03,2.27.27-1.64,18.53-3.23,18.03Z"/>
  <path class="cls-1" d="m16.75,44.08c1.91,6.16,3.83,12.32,5.8,18.66-1.42-.37-1.52-1.51-1.82-2.37-1.79-5.1-3.51-10.23-5.27-15.34-.21-.61-.52-1.19-.78-1.79,1.08-.7,1.44.43,2.07.84Z"/>
  <path class="cls-2" d="m24.98,12.1c-1.57-2.01-1.75-4.19-.74-6.48.91-2.07,2.63-3.15,4.75-3.53,1.76-.31,1.92-.04,1.43,1.73-3.37.14-4.37,1.35-4.67,5.68-.04.59-.05,1.19.04,1.77.1.7-.26.82-.8.82Z"/>
</svg>